name analog
datacolumns 19
datarows 42
range 0.1945 0.215
endheader
time	ground_force_vx	ground_force_vy	ground_force_vz	ground_force_px	ground_force_py	ground_force_pz	l_ground_force_vx	l_ground_force_vy	l_ground_force_vz	l_ground_force_px	l_ground_force_py	l_ground_force_pz	ground_torque_x	ground_torque_y	ground_torque_z	l_ground_torque_x	l_ground_torque_y	l_ground_torque_z
0.1945	-0.0	-0.0	-0.0	5.702388286590576	35.59416198730469	-309.8621520996094	-11.259669303894045	-39.59183883666992	-323.0590515136719	-0.0	-0.0	-0.0	-0.0	-0.0	-0.0	50695.29296875	12478.7265625	-6034.103515625
0.195	-0.0	-0.0	-0.0	5.636998176574707	35.741294860839844	-311.5341186523437	-10.983161926269531	-39.40837478637695	-323.63623046875	-0.0	-0.0	-0.0	-0.0	-0.0	-0.0	50505.36328125	12257.0908203125	-5901.6162109375
0.1955	-0.0	-0.0	-0.0	5.587042808532715	36.21870803833008	-310.9242248535156	-10.935379981994627	-39.12651062011719	-321.8898620605469	-0.0	-0.0	-0.0	-0.0	-0.0	-0.0	50579.69140625	12089.4033203125	-5820.59814453125
0.196	-0.0	-0.0	-0.0	5.822940349578857	36.30812072753906	-312.9483947753906	-10.806035995483398	-38.57267379760742	-321.88897705078125	-0.0	-0.0	-0.0	-0.0	-0.0	-0.0	50465.015625	12208.2041015625	-5701.8232421875
0.1965	-0.0	-0.0	-0.0	5.960791110992432	36.94047927856445	-313.3346862792969	-10.49196720123291	-38.83755493164063	-321.15484619140625	-0.0	-0.0	-0.0	-0.0	-0.0	-0.0	50394.87890625	11966.0673828125	-5621.2666015625
0.197	-0.0	-0.0	-0.0	5.3442463874816895	36.60822296142578	-312.1144714355469	-10.064727783203123	-38.63680648803711	-320.1409606933594	-0.0	-0.0	-0.0	-0.0	-0.0	-0.0	50220.6953125	11714.4482421875	-5618.03857421875
0.1975	-0.0	-0.0	-0.0	5.279181003570557	36.89998626708984	-311.954833984375	-10.282674789428713	-38.50006484985352	-318.2679138183594	-0.0	-0.0	-0.0	-0.0	-0.0	-0.0	50061.484375	11591.0830078125	-5461.8193359375
0.198	-0.0	-0.0	-0.0	5.481996536254883	37.14287567138672	-312.2110595703125	-9.56489086151123	-37.8416633605957	-317.9190673828125	-0.0	-0.0	-0.0	-0.0	-0.0	-0.0	50096.9375	11783.94140625	-5496.14306640625
0.1985	-0.0	-0.0	-0.0	5.675839424133301	37.42571640014648	-310.8597412109375	-9.580764770507812	-37.81736373901367	-316.1736755371094	-0.0	-0.0	-0.0	-0.0	-0.0	-0.0	49914.37109375	11539.630859375	-5288.48583984375
0.199	-0.0	-0.0	-0.0	5.561553478240967	37.22603225708008	-309.2648620605469	-9.50755214691162	-37.60074234008789	-315.0918273925781	-0.0	-0.0	-0.0	-0.0	-0.0	-0.0	49505.51953125	11537.7841796875	-5280.1904296875
0.1995	-0.0	-0.0	-0.0	5.555760860443115	37.14269256591797	-311.4068908691406	-9.268640518188477	-37.04640197753906	-314.706298828125	-0.0	-0.0	-0.0	-0.0	-0.0	-0.0	49618.03515625	11450.591796875	-5182.67041015625
0.2	-0.0	-0.0	-0.0	5.1742095947265625	37.58830261230469	-310.4656066894531	-9.605266571044922	-36.7418212890625	-312.3344116210937	-0.0	-0.0	-0.0	-0.0	-0.0	-0.0	49144.2109375	11437.5	-4964.97412109375
0.2005	-0.0	-0.0	-0.0	5.620262145996094	37.61759567260742	-309.6806030273437	-9.201335906982422	-36.677978515625	-311.1319885253906	-0.0	-0.0	-0.0	-0.0	-0.0	-0.0	49066.703125	11253.0439453125	-4905.42626953125
0.201	-0.0	-0.0	-0.0	5.462442398071289	37.6524543762207	-308.7608337402344	-9.225921630859377	-36.84490585327149	-310.3374328613281	-0.0	-0.0	-0.0	-0.0	-0.0	-0.0	48987.1875	11277.4384765625	-4978.0498046875
0.2015	-0.0	-0.0	-0.0	5.477441787719727	37.81623077392578	-307.251953125	-9.314632415771484	-36.41313934326172	-310.2012939453125	-0.0	-0.0	-0.0	-0.0	-0.0	-0.0	48937.47265625	11095.125	-4892.4287109375
0.202	-0.0	-0.0	-0.0	5.712759494781494	37.89127731323242	-309.48468017578125	-9.634345054626465	-36.59386444091797	-308.4958801269531	-0.0	-0.0	-0.0	-0.0	-0.0	-0.0	48861.71875	11506.060546875	-4727.912109375
0.2025	-0.0	-0.0	-0.0	5.70947265625	38.74668884277344	-308.877685546875	-9.378533363342283	-36.05995178222656	-307.60260009765625	-0.0	-0.0	-0.0	-0.0	-0.0	-0.0	48754.8203125	11119.541015625	-4808.33203125
0.203	-0.0	-0.0	-0.0	5.210726261138916	38.4289665222168	-308.11749267578125	-8.867914199829102	-35.731529235839844	-306.1507568359375	-0.0	-0.0	-0.0	-0.0	-0.0	-0.0	48405.54296875	11189.2001953125	-4654.93017578125
0.20350000000000001	-0.0	-0.0	-0.0	5.544659614562988	38.40160751342773	-309.8465881347656	-8.616032600402832	-35.6433219909668	-305.3548889160156	-0.0	-0.0	-0.0	-0.0	-0.0	-0.0	48239.1796875	10819.2783203125	-4642.771484375
0.20400000000000001	-0.0	-0.0	-0.0	4.893098831176758	38.556488037109375	-310.1385803222656	-8.859822273254395	-35.49164581298828	-305.4093322753906	-0.0	-0.0	-0.0	-0.0	-0.0	-0.0	48193.703125	11040.2099609375	-4515.89306640625
0.20450000000000002	-0.0	-0.0	-0.0	4.905454635620117	38.5549430847168	-308.8319091796875	-8.338813781738281	-35.036865234375	-302.911865234375	-0.0	-0.0	-0.0	-0.0	-0.0	-0.0	47996.01171875	10808.951171875	-4435.404296875
0.20500000000000002	-0.0	-0.0	-0.0	5.404126167297363	38.669551849365234	-309.02960205078125	-8.465970993041992	-34.647125244140625	-303.1625366210937	-0.0	-0.0	-0.0	-0.0	-0.0	-0.0	48192.71875	10803.1494140625	-4358.626953125
0.20550000000000002	-0.0	-0.0	-0.0	4.7790961265563965	38.695255279541016	-308.629150390625	-8.326659202575684	-34.63420486450195	-300.9686889648437	-0.0	-0.0	-0.0	-0.0	-0.0	-0.0	47841.53125	10568.3369140625	-4366.90087890625
0.20600000000000002	-0.0	-0.0	-0.0	4.906578063964844	38.771728515625	-306.3080139160156	-8.04742431640625	-34.09217071533203	-301.5166931152344	-0.0	-0.0	-0.0	-0.0	-0.0	-0.0	47396.52734375	10709.3671875	-4273.43896484375
0.20650000000000002	-0.0	-0.0	-0.0	4.804364204406738	38.79725646972656	-305.7526550292969	-8.060192108154297	-34.0290412902832	-301.0682678222656	-0.0	-0.0	-0.0	-0.0	-0.0	-0.0	47241.9765625	10508.982421875	-4171.51806640625
0.20700000000000002	-0.0	-0.0	-0.0	4.970150470733643	38.1611442565918	-305.04595947265625	-8.161392211914062	-33.95330810546875	-299.0736083984375	-0.0	-0.0	-0.0	-0.0	-0.0	-0.0	47293.03515625	10386.53515625	-4078.402099609375
0.20750000000000002	-0.0	-0.0	-0.0	4.690305233001709	38.300418853759766	-304.9441223144531	-7.844409465789795	-33.56224060058594	-298.1265563964844	-0.0	-0.0	-0.0	-0.0	-0.0	-0.0	47082.3203125	10437.16796875	-3967.9228515625
0.20800000000000002	-0.0	-0.0	-0.0	5.160477638244629	38.53004837036133	-305.453125	-7.844297409057617	-33.612979888916016	-296.08056640625	-0.0	-0.0	-0.0	-0.0	-0.0	-0.0	47366.125	10295.630859375	-3989.41455078125
0.2085	-0.0	-0.0	-0.0	5.401950836181641	37.98361206054688	-306.44879150390625	-8.008001327514648	-33.73888397216797	-295.8793334960937	-0.0	-0.0	-0.0	-0.0	-0.0	-0.0	47023.64453125	10294.6259765625	-3946.50244140625
0.209	-0.0	-0.0	-0.0	5.326767921447754	38.19948959350586	-305.0450744628906	-7.629127502441406	-33.68789291381836	-295.4830627441406	-0.0	-0.0	-0.0	-0.0	-0.0	-0.0	46954.3984375	10199.1591796875	-3845.23095703125
0.2095	-0.0	-0.0	-0.0	5.073629856109619	38.32607269287109	-303.7474365234375	-7.4517059326171875	-33.399593353271484	-294.7945861816406	-0.0	-0.0	-0.0	-0.0	-0.0	-0.0	46956.8359375	10282.2841796875	-3802.189453125
0.21	-0.0	-0.0	-0.0	5.456647872924805	38.37803649902344	-305.4563293457031	-7.400209426879883	-33.673397064208984	-297.17315673828125	-0.0	-0.0	-0.0	-0.0	-0.0	-0.0	46890.4609375	9970.2841796875	-3810.81298828125
0.2105	-0.0	-0.0	-0.0	5.452915668487549	38.23694610595703	-304.7943115234375	-7.729182243347168	-33.48521423339844	-294.2901611328125	-0.0	-0.0	-0.0	-0.0	-0.0	-0.0	46718.42578125	9853.8818359375	-3599.5576171875
0.211	-0.0	-0.0	-0.0	5.504921913146973	38.64119720458984	-304.5874328613281	-7.551508903503418	-33.54015350341797	-293.5346984863281	-0.0	-0.0	-0.0	-0.0	-0.0	-0.0	46795.5078125	9820.1650390625	-3658.857666015625
0.2115	-0.0	-0.0	-0.0	5.657100200653076	38.63026809692383	-304.318115234375	-7.248355388641357	-33.47392272949219	-293.88360595703125	-0.0	-0.0	-0.0	-0.0	-0.0	-0.0	47006.4921875	9846.8193359375	-3700.668701171875
0.212	-0.0	-0.0	-0.0	6.181752681732178	38.50433349609375	-304.3994445800781	-7.159603595733643	-33.22406005859375	-292.89569091796875	-0.0	-0.0	-0.0	-0.0	-0.0	-0.0	46785.7578125	9509.60546875	-3576.827392578125
0.2125	-0.0	-0.0	-0.0	6.433431148529053	38.42096328735352	-306.3111877441406	-7.008152008056641	-33.255897521972656	-292.2594299316406	-0.0	-0.0	-0.0	-0.0	-0.0	-0.0	46899.65234375	9442.5615234375	-3550.506591796875
0.213	-0.0	-0.0	-0.0	6.198160648345947	39.184871673583984	-305.8938293457031	-6.830730438232422	-33.281612396240234	-293.26629638671875	-0.0	-0.0	-0.0	-0.0	-0.0	-0.0	46688.20703125	9445.7841796875	-3391.541259765625
0.2135	-0.0	-0.0	-0.0	6.3603997230529785	38.75204849243164	-307.9071960449219	-6.637241840362549	-33.208953857421875	-291.9938659667969	-0.0	-0.0	-0.0	-0.0	-0.0	-0.0	46931.22265625	9322.7490234375	-3338.914306640625
0.214	-0.0	-0.0	-0.0	6.092811107635498	38.949989318847656	-308.22119140625	-6.475887298583984	-33.06839370727539	-292.38250732421875	-0.0	-0.0	-0.0	-0.0	-0.0	-0.0	46617.58984375	9262.978515625	-3368.38525390625
0.2145	-0.0	-0.0	-0.0	6.3051581382751465	38.93305969238281	-308.5362243652344	-6.439733505249023	-33.120635986328125	-291.4382019042969	-0.0	-0.0	-0.0	-0.0	-0.0	-0.0	46553.81640625	9344.33984375	-3239.7685546875
0.215	-0.0	-0.0	-0.0	6.538990020751953	38.9140510559082	-307.51434326171875	-6.255364418029785	-33.16604232788086	-290.805419921875	-0.0	-0.0	-0.0	-0.0	-0.0	-0.0	46450.6875	9390.869140625	-3216.589111328125
